<svg width="17" height="17" viewBox="0 0 17 17" fill="none" xmlns="http://www.w3.org/2000/svg">
<g clip-path="url(#clip0_10_392)">
<path d="M15.4864 13.0911C15.4864 13.3366 15.4318 13.5888 15.3159 13.8343C15.2 14.0798 15.05 14.3116 14.8523 14.5298C14.5182 14.8979 14.15 15.1639 13.7341 15.3343C13.325 15.5048 12.8818 15.5934 12.4046 15.5934C11.7091 15.5934 10.9659 15.4298 10.1818 15.0957C9.39776 14.7616 8.61367 14.3116 7.83639 13.7457C7.04419 13.1662 6.29664 12.528 5.60003 11.8366C4.91055 11.1425 4.27464 10.3972 3.69776 9.60703C3.13867 8.82976 2.68867 8.05249 2.36139 7.28203C2.03412 6.50476 1.87048 5.76158 1.87048 5.05249C1.87048 4.58885 1.9523 4.14567 2.11594 3.73658C2.27957 3.32067 2.53867 2.93885 2.90003 2.59794C3.33639 2.16839 3.81367 1.95703 4.31821 1.95703C4.50912 1.95703 4.70003 1.99794 4.87048 2.07976C5.04776 2.16158 5.20457 2.2843 5.3273 2.46158L6.90912 4.69112C7.03185 4.86158 7.12048 5.01839 7.18185 5.16839C7.24321 5.31158 7.2773 5.45476 7.2773 5.5843C7.2773 5.74794 7.22957 5.91158 7.13412 6.06839C7.04548 6.22521 6.91594 6.38885 6.7523 6.55249L6.23412 7.09112C6.15912 7.16612 6.12503 7.25476 6.12503 7.36385C6.12503 7.4184 6.13185 7.46612 6.14548 7.52067C6.16594 7.57521 6.18639 7.61612 6.20003 7.65703C6.32276 7.88203 6.53412 8.17521 6.83412 8.52976C7.14094 8.8843 7.46821 9.24567 7.82276 9.60703C8.19094 9.9684 8.54548 10.3025 8.90685 10.6093C9.26139 10.9093 9.55457 11.1138 9.78639 11.2366C9.82048 11.2502 9.86139 11.2707 9.90912 11.2911C9.96367 11.3116 10.0182 11.3184 10.0796 11.3184C10.1955 11.3184 10.2841 11.2775 10.3591 11.2025L10.8773 10.6911C11.0478 10.5207 11.2114 10.3911 11.3682 10.3093C11.525 10.2138 11.6818 10.1661 11.8523 10.1661C11.9818 10.1661 12.1182 10.1934 12.2682 10.2548C12.4182 10.3161 12.575 10.4048 12.7455 10.5207L15.0023 12.1229C15.1796 12.2457 15.3023 12.3888 15.3773 12.5593C15.4455 12.7298 15.4864 12.9002 15.4864 13.0911Z" stroke="#ABE2F5" stroke-width="1.02273" stroke-miterlimit="10"/>
<path d="M13.1211 6.72976C13.1211 6.32067 12.8007 5.69339 12.3234 5.18203C11.887 4.71158 11.3075 4.34339 10.7347 4.34339M15.5075 6.72976C15.5075 4.09112 13.3734 1.95703 10.7347 1.95703" stroke="#ABE2F5" stroke-width="1.02273" stroke-linecap="round" stroke-linejoin="round"/>
</g>
<defs>
<clipPath id="clip0_10_392">
<rect width="16.3636" height="16.3636" fill="white" transform="translate(0.507202 0.59375)"/>
</clipPath>
</defs>
</svg>
