<svg width="24" height="25" viewBox="0 0 24 25" fill="none" xmlns="http://www.w3.org/2000/svg">
<path d="M9.713 3.75283C10.294 3.25783 10.585 3.00983 10.889 2.86483C11.2359 2.69907 11.6155 2.61304 12 2.61304C12.3845 2.61304 12.7641 2.69907 13.111 2.86483C13.415 3.00983 13.706 3.25783 14.287 3.75283C14.886 4.26283 15.494 4.52083 16.294 4.58383C17.055 4.64483 17.436 4.67583 17.754 4.78783C18.488 5.04783 19.066 5.62483 19.325 6.35983C19.437 6.67683 19.468 7.05783 19.529 7.81983C19.592 8.61983 19.849 9.22683 20.359 9.82583C20.855 10.4068 21.103 10.6978 21.248 11.0018C21.584 11.7048 21.584 12.5218 21.248 13.2238C21.103 13.5278 20.855 13.8188 20.36 14.3998C19.8648 14.9561 19.572 15.6633 19.529 16.4068C19.468 17.1678 19.437 17.5488 19.325 17.8668C19.1968 18.2294 18.9891 18.5587 18.7171 18.8305C18.445 19.1023 18.1156 19.3099 17.753 19.4378C17.436 19.5498 17.055 19.5808 16.293 19.6418C15.493 19.7048 14.886 19.9618 14.287 20.4718C13.706 20.9678 13.415 21.2158 13.111 21.3608C12.7641 21.5266 12.3845 21.6126 12 21.6126C11.6155 21.6126 11.2359 21.5266 10.889 21.3608C10.585 21.2158 10.294 20.9678 9.713 20.4728C9.1567 19.9777 8.4495 19.6849 7.706 19.6418C6.945 19.5808 6.564 19.5498 6.246 19.4378C5.88344 19.3096 5.55417 19.1019 5.28233 18.8299C5.01049 18.5579 4.80297 18.2285 4.675 17.8658C4.563 17.5488 4.532 17.1678 4.471 16.4058C4.4281 15.6628 4.13565 14.956 3.641 14.3998C3.145 13.8188 2.897 13.5278 2.751 13.2238C2.5854 12.8768 2.49954 12.4972 2.49971 12.1127C2.49988 11.7282 2.58609 11.3487 2.752 11.0018C2.897 10.6978 3.145 10.4068 3.64 9.82583C4.16 9.21483 4.409 8.60283 4.471 7.81883C4.532 7.05783 4.563 6.67683 4.675 6.35883C4.8032 5.99626 5.01093 5.66699 5.28294 5.39515C5.55495 5.12331 5.88436 4.9158 6.247 4.78783C6.564 4.67583 6.945 4.64483 7.707 4.58383C8.45005 4.54093 9.15687 4.24748 9.713 3.75283Z" stroke="#00BFFF" stroke-width="1.5" stroke-linecap="round" stroke-linejoin="round"/>
<path d="M8.66699 12.7458L10.172 14.4668C10.271 14.5802 10.3944 14.6697 10.5328 14.7287C10.6713 14.7877 10.8213 14.8147 10.9716 14.8077C11.1219 14.8007 11.2688 14.7598 11.4011 14.6882C11.5335 14.6165 11.6479 14.5159 11.736 14.3938L15.333 9.41284" stroke="#00BFFF" stroke-width="1.5" stroke-linecap="round" stroke-linejoin="round"/>
</svg>
