<svg width="21" height="21" viewBox="0 0 21 21" fill="none" xmlns="http://www.w3.org/2000/svg">
<path d="M11.2086 17.7787H4.21423C3.76894 17.7787 3.4082 17.4177 3.4082 16.9726V3.98082C3.4082 3.5356 3.769 3.1748 4.21423 3.1748H17.2061C17.6513 3.1748 18.0121 3.5356 18.0121 3.98082V16.9726C18.0121 17.4178 17.6512 17.7787 17.2061 17.7787H13.4847V12.1233H15.383L15.6672 9.91925H13.4847V8.51212C13.4847 7.874 13.6619 7.43915 14.5769 7.43915L15.744 7.43864V5.46734C15.5422 5.44048 14.8494 5.38047 14.0434 5.38047C12.3607 5.38047 11.2086 6.4076 11.2086 8.29384V9.91925H9.30548V12.1233H11.2086V17.7787Z" fill="#1D3742"/>
</svg>
