<svg width="15" height="14" viewBox="0 0 15 14" fill="none" xmlns="http://www.w3.org/2000/svg">
<path d="M3.51074 13.9668H0.664062V5.14844H3.51074V13.9668ZM11.2881 5.06348C13.311 5.06355 14.9004 6.33215 14.9004 9.06348V13.9668H11.6729V9.40332C11.6729 8.20891 11.1677 7.39363 10.0576 7.39355C9.20866 7.39355 8.7365 7.94345 8.5166 8.47363C8.43421 8.6639 8.44628 8.92929 8.44629 9.19434V13.9668H5.24902C5.24902 13.9668 5.29022 5.88435 5.24902 5.14844H8.44629V6.53223C8.63519 5.92709 9.65751 5.06348 11.2881 5.06348ZM2.03418 0.985352C3.08418 0.985352 3.73022 1.64353 3.75098 2.51367C3.75098 3.36817 3.08453 4.04492 2.01465 4.04492H1.99414C0.963909 4.04485 0.295967 3.37099 0.295898 2.5166C0.295898 1.64561 0.983465 0.985554 2.03418 0.985352Z" fill="#1D3742"/>
</svg>
