<svg width="17" height="18" viewBox="0 0 17 18" fill="none" xmlns="http://www.w3.org/2000/svg">
<path d="M8.68892 9.93228C8.96828 9.93228 9.2449 9.87726 9.50299 9.77035C9.76108 9.66345 9.99559 9.50675 10.1931 9.30922C10.3907 9.11168 10.5474 8.87717 10.6543 8.61908C10.7612 8.36099 10.8162 8.08436 10.8162 7.80501C10.8162 7.52565 10.7612 7.24903 10.6543 6.99094C10.5474 6.73284 10.3907 6.49833 10.1931 6.3008C9.99559 6.10326 9.76108 5.94657 9.50299 5.83966C9.2449 5.73276 8.96828 5.67773 8.68892 5.67773C8.12473 5.67773 7.58365 5.90186 7.18471 6.3008C6.78577 6.69974 6.56165 7.24082 6.56165 7.80501C6.56165 8.3692 6.78577 8.91028 7.18471 9.30922C7.58365 9.70816 8.12473 9.93228 8.68892 9.93228Z" stroke="#ABE2F5" stroke-width="1.02273"/>
<path d="M2.97533 6.56416C4.31851 0.659616 13.0662 0.666435 14.4026 6.57098C15.1867 10.0346 13.0321 12.9664 11.1435 14.7801C10.4836 15.4166 9.60244 15.7722 8.68556 15.7722C7.76868 15.7722 6.88755 15.4166 6.2276 14.7801C4.34578 12.9664 2.19124 10.0278 2.97533 6.56416Z" stroke="#ABE2F5" stroke-width="1.02273"/>
</svg>
