<svg width="20" height="20" viewBox="0 0 20 20" fill="none" xmlns="http://www.w3.org/2000/svg">
<path d="M12.5861 12.1017C10.6901 14.2017 5.8538 9.15667 7.75696 7.04834C8.91913 5.76084 7.60655 4.29 6.8798 3.2075C5.51576 1.17834 2.52246 3.98 2.61271 5.7625C2.90009 11.3842 8.67688 18.0458 14.2708 17.4642C16.0204 17.2825 18.0312 13.9558 16.0243 12.74C15.0205 12.1317 13.6422 10.9317 12.5861 12.1008M11.3195 2.5C12.7892 2.5 14.1988 3.11458 15.238 4.20855C16.2773 5.30251 16.8611 6.78624 16.8611 8.33334M11.3195 5.83334C11.9494 5.83334 12.5534 6.09673 12.9988 6.56557C13.4442 7.03441 13.6945 7.6703 13.6945 8.33334" stroke="black" stroke-width="1.16531" stroke-linecap="round" stroke-linejoin="round"/>
</svg>
