<svg width="15" height="13" viewBox="0 0 15 13" fill="none" xmlns="http://www.w3.org/2000/svg">
<path d="M14.9562 2.23758C14.4196 2.48194 13.8419 2.6472 13.2358 2.72103C13.8547 2.3413 14.3296 1.73918 14.5533 1.0219C13.9739 1.37351 13.3335 1.6293 12.6495 1.76643C12.1043 1.16958 11.3252 0.796875 10.4628 0.796875C8.80931 0.796875 7.46781 2.17253 7.46781 3.86902C7.46781 4.10987 7.49353 4.34369 7.54496 4.56872C5.05483 4.44038 2.84757 3.21855 1.36892 1.35768C1.11091 1.81301 0.96347 2.3413 0.96347 2.90387C0.96347 3.96923 1.49235 4.90977 2.2964 5.46091C1.80609 5.44597 1.3432 5.30621 0.938611 5.07766V5.11546C0.938611 6.60451 1.97152 7.84655 3.34302 8.12784C3.09187 8.19992 2.827 8.23595 2.55355 8.23595C2.36069 8.23595 2.1721 8.2175 1.98952 8.18146C2.37097 9.40152 3.47674 10.2902 4.78824 10.3139C3.76304 11.1385 2.47041 11.6298 1.06719 11.6298C0.825462 11.6298 0.586307 11.6158 0.352295 11.5876C1.67836 12.4578 3.25388 12.9668 4.94511 12.9668C10.4568 12.9668 13.4698 8.28606 13.4698 4.2259C13.4698 4.09229 13.4673 3.95868 13.4621 3.82771C14.0476 3.39436 14.5559 2.85376 14.9562 2.23758Z" fill="#1D3742"/>
</svg>
