<svg id="Layer_1" data-name="Layer 1" xmlns="http://www.w3.org/2000/svg" viewBox="0 0 535.67 285.53"><title>Cigna Healthcare logo - Brandlogos.net</title><path d="M623.68,506.15c-3.37,0-5.74,2.6-6.24,6.34h12.35C629.41,508.93,627.31,506.15,623.68,506.15Z" transform="translate(-116.16 -241.24)" style="fill:none"/><path d="M459.59,518.93V519c0,2.28,2,3.55,4.65,3.55,3.64,0,6.38-2,6.38-5.06v-1.37a15.69,15.69,0,0,0-5.51-1C461.64,515.18,459.59,516.59,459.59,518.93Z" transform="translate(-116.16 -241.24)" style="fill:none"/><path d="M575.62,385c-18.59,0-26.32,18.38-26.32,40.73s7.73,40.74,26.32,40.74,26.32-18.38,26.32-40.74S594.22,385,575.62,385Z" transform="translate(-116.16 -241.24)" style="fill:none"/><path d="M331.32,513.24c17.27,0,26.84-10.2,26.84-20.18,0-7.91-4.79-15.67-18.73-15.67H316.12c-6,3.12-10.2,10.47-10.2,17.75C305.93,505.94,315.09,513.24,331.32,513.24Z" transform="translate(-116.16 -241.24)" style="fill:none"/><path d="M438.62,506.15c-3.37,0-5.74,2.6-6.24,6.34h12.35C444.37,508.93,442.27,506.15,438.62,506.15Z" transform="translate(-116.16 -241.24)" style="fill:none"/><path d="M330.28,384c-11.65,0-19.15,9.78-19.15,26s7.49,26,19.15,26c11.45,0,18.94-9.78,18.94-26S341.73,384,330.28,384Z" transform="translate(-116.16 -241.24)" style="fill:none"/><path d="M572.35,518.93V519c0,2.28,2,3.55,4.65,3.55,3.64,0,6.38-2,6.38-5.06v-1.37a15.73,15.73,0,0,0-5.51-1C574.4,515.18,572.35,516.59,572.35,518.93Z" transform="translate(-116.16 -241.24)" style="fill:none"/><path d="M413,501.65a8.66,8.66,0,0,0-7.52,4.24V492.94H400v33.27h5.51V512.63c0-3.74,2.23-6,5.42-6s5.15,2.14,5.15,5.88v13.67h5.51V510.9C421.58,505.28,418.43,501.65,413,501.65Z" transform="translate(-116.16 -241.24)" style="fill:#03f"/><path d="M438.67,501.65c-6.88,0-11.76,5.65-11.76,12.54v.09c0,7.43,5.38,12.49,12.35,12.49a12.2,12.2,0,0,0,9.85-4.51l-3.24-2.87a8.73,8.73,0,0,1-6.52,2.87,6.72,6.72,0,0,1-6.93-6.11h17.69c0-.55.09-1,.09-1.55C450.2,507.66,446.33,501.65,438.67,501.65Zm-6.29,10.85c.5-3.74,2.87-6.34,6.24-6.34,3.65,0,5.74,2.78,6.11,6.34Z" transform="translate(-116.16 -241.24)" style="fill:#03f"/><path d="M448.5,471c0-4.6-1.67-4.87-1.67-4.87h-2.51c-4.18,0-8.36-4.18-8.36-8.36V415.31c0-17.13,10.23-27.37,23.39-27.37,11.28,0,19.64,6.26,19.64,20v49.76c0,4.18-4.18,8.36-8.36,8.36h-2.51s-1.67.44-1.67,4.7a11.74,11.74,0,0,0,1.67,6.55h49.3s1.67-1.85,1.67-6.11-1.67-5.13-1.67-5.13h-2.51c-4.18,0-8.36-4.18-8.36-8.36V407c0-24-15-35.72-36.77-35.72-16.08,0-28.41,7.52-35.93,18.59,0,0,0-11,0-12.28,0-3.58-3.44-4.83-7.56-3.17-2.78,1.12-16.82,6.06-28.72,6.06a9,9,0,0,0-1.69,5.57,9.42,9.42,0,0,0,1.67,5.65H400c4.18,0,8.36,4.18,8.36,8.36v57.73c0,4.18-4.18,8.36-8.36,8.36h-2.51s-1.67.27-1.67,4.78,1.67,6.46,1.67,6.46h49.3S448.5,475.59,448.5,471Z" transform="translate(-116.16 -241.24)" style="fill:#03f"/><path d="M357.36,378.85a49.36,49.36,0,0,0-27.08-7.76c-25.8,0-44.74,17.27-44.74,38.92,0,13.32,7.28,24.14,17.27,30.8l-17.53,21.78a19.38,19.38,0,0,0-2.23,8.06,10.61,10.61,0,0,0,2.55,6.72H298c-9.15,5.41-13.32,14.42-13.32,22.12,0,15,13.11,27.26,42.46,27.26,29.55,0,57-15.61,57-40.17,0-17.48-10.4-29.33-36.42-29.33H308.44l7.7-10.42a39.76,39.76,0,0,0,14.15,2.08c25.6,0,44.74-17.48,44.74-38.92a35.35,35.35,0,0,0-5.14-18.34H385.1a12.23,12.23,0,0,0,1.67-6.54,13.12,13.12,0,0,0-1.65-6.28H357.36Zm-41.23,98.52h23.31c13.94,0,18.73,7.77,18.73,15.67,0,10-9.57,20.18-26.84,20.18-16.23,0-25.39-7.28-25.39-18.1C305.93,487.84,310.1,480.5,316.13,477.37ZM330.28,436c-11.65,0-19.15-9.78-19.15-26s7.49-26,19.15-26c11.45,0,18.94,9.78,18.94,26S341.73,436,330.28,436Z" transform="translate(-116.16 -241.24)" style="fill:#03f"/><path d="M208.45,442.4a9.65,9.65,0,0,0-6.09-.14c-7.74,13.44-14.74,19.63-25.62,19.63-19.64,0-32.17-17.75-32.17-38.85,0-19.64,8.77-38.86,29-38.86,12.74,0,22.53,7.94,22.53,20l.29,3.76s-.39,1.67,4.91,1.67,6.74-1.67,6.74-1.67L207,380.63a3.09,3.09,0,0,0-.49-1.22,4.21,4.21,0,0,0-1-.87c-8.15-4.59-19-7.31-31.75-7.31-29.87,0-57.65,20-57.65,56.2,0,32.38,24.44,52.85,52.44,52.85,26.32,0,38.54-16.51,44-34.89A9.17,9.17,0,0,0,208.45,442.4Z" transform="translate(-116.16 -241.24)" style="fill:#03f"/><path d="M245.89,363.78a17.73,17.73,0,1,0-17.28-17.72A17.51,17.51,0,0,0,245.89,363.78Z" transform="translate(-116.16 -241.24)" style="fill:#03f"/><path d="M259.68,396.22c0-4.18,4.18-8.36,8.36-8.36h2.51s1.67-1,1.67-5.1a10.27,10.27,0,0,0-1.67-6.14h-49.3a12.73,12.73,0,0,0-1.67,6.49c0,3.94,1.67,4.75,1.67,4.75h2.51c4.18,0,8.36,4.18,8.36,8.36v61.51c0,4.18-4.18,8.36-8.36,8.36h-2.51s-1.67.82-1.67,4.76a12.73,12.73,0,0,0,1.67,6.49h49.3a10.27,10.27,0,0,0,1.67-6.14c0-4-1.67-5.1-1.67-5.1H268c-4.18,0-8.36-4.18-8.36-8.36V396.22Z" transform="translate(-116.16 -241.24)" style="fill:#03f"/><path d="M578.14,501.78a20.55,20.55,0,0,0-9.16,2l1.5,4.42a16.77,16.77,0,0,1,6.88-1.5c3.83,0,5.93,1.82,5.93,5.15v.46a20.34,20.34,0,0,0-6.65-1c-5.61,0-9.76,2.55-9.76,7.89v.09c0,4.83,4,7.43,8.57,7.43a9.72,9.72,0,0,0,7.79-3.46v3h5.47V512C588.71,505.53,585.24,501.78,578.14,501.78Zm5.24,15.73c0,3-2.74,5.06-6.38,5.06-2.6,0-4.65-1.27-4.65-3.55v-.09c0-2.33,2-3.74,5.51-3.74a15.65,15.65,0,0,1,5.51,1v1.36Z" transform="translate(-116.16 -241.24)" style="fill:#03f"/><path d="M600.79,507.56v-5.42h-5.51v24.07h5.51v-9.16c0-6.38,3.37-9.52,8.21-9.52h.32v-5.84C605.07,501.5,602.29,504,600.79,507.56Z" transform="translate(-116.16 -241.24)" style="fill:#03f"/><path d="M642.06,462.34c0-3.24-1.67-4.22-1.67-4.22h-2.51c-4.18,0-8.35-4.18-8.35-8.36V376.3a2.36,2.36,0,0,0-2.47-2.16h-6.36a3.4,3.4,0,0,0-2.21,1l-8.86,11.57a1.38,1.38,0,0,1-2.23,0h0c-5.93-7-15.89-15.57-33.86-15.57-27,0-52.64,19.64-52.64,55.57,0,33.63,22.14,53.48,49.3,53.48,15.46,0,25.28-6.48,33-16.51v12.42a3.94,3.94,0,0,0,3.29,3.54,9.16,9.16,0,0,0,5.07-.29l28.83-12.32A6.64,6.64,0,0,0,642.06,462.34Zm-66.44,4.14c-18.59,0-26.32-18.38-26.32-40.74S557,385,575.62,385s26.32,18.38,26.32,40.73S594.22,466.47,575.62,466.47Z" transform="translate(-116.16 -241.24)" style="fill:#03f"/><path d="M641.43,506.28l-1.3-.31a4.31,4.31,0,0,1-1-.31.64.64,0,0,1-.36-.6.77.77,0,0,1,.36-.68,1.74,1.74,0,0,1,1-.25,2,2,0,0,1,.92.19,1.06,1.06,0,0,1,.59,1h1.51a2.26,2.26,0,0,0-.88-1.83,3.29,3.29,0,0,0-2-.63,3.09,3.09,0,0,0-2.16.67,2.18,2.18,0,0,0-.73,1.68,1.83,1.83,0,0,0,.76,1.63,5,5,0,0,0,1.63.58l.8.18a3.67,3.67,0,0,1,1,.35.65.65,0,0,1,.33.58.86.86,0,0,1-.66.87,2.8,2.8,0,0,1-.9.12A1.63,1.63,0,0,1,639,509a1.57,1.57,0,0,1-.28-.77h-1.5a2.25,2.25,0,0,0,.84,1.85,3.59,3.59,0,0,0,2.31.67,3.34,3.34,0,0,0,2.23-.68,2.16,2.16,0,0,0,.79-1.71,1.85,1.85,0,0,0-.67-1.54A3.48,3.48,0,0,0,641.43,506.28Z" transform="translate(-116.16 -241.24)" style="fill:#03f"/><path d="M649.55,503,648.19,509,646.82,503h-2.29v7.53H646v-6.32l1.42,6.32h1.53l1.43-6.32v6.32h1.46V503Z" transform="translate(-116.16 -241.24)" style="fill:#03f"/><path d="M465.38,501.78a20.55,20.55,0,0,0-9.16,2l1.5,4.42a16.77,16.77,0,0,1,6.88-1.5c3.83,0,5.93,1.82,5.93,5.15v.46a20.36,20.36,0,0,0-6.66-1c-5.61,0-9.76,2.55-9.76,7.89v.09c0,4.83,4,7.43,8.57,7.43a9.72,9.72,0,0,0,7.79-3.46v3h5.47V512C476,505.53,472.49,501.78,465.38,501.78Zm5.24,15.73c0,3-2.74,5.06-6.38,5.06-2.6,0-4.65-1.27-4.65-3.55v-.09c0-2.33,2-3.74,5.51-3.74a15.65,15.65,0,0,1,5.51,1v1.36Z" transform="translate(-116.16 -241.24)" style="fill:#03f"/><path d="M623.71,501.65c-6.88,0-11.76,5.65-11.76,12.54v.09c0,7.43,5.38,12.49,12.35,12.49a12.2,12.2,0,0,0,9.85-4.51l-3.24-2.87a8.73,8.73,0,0,1-6.52,2.87,6.72,6.72,0,0,1-6.93-6.11h17.69c0-.55.09-1,.09-1.55C635.24,507.66,631.37,501.65,623.71,501.65Zm-6.29,10.85c.5-3.74,2.87-6.34,6.24-6.34,3.65,0,5.74,2.78,6.11,6.34Z" transform="translate(-116.16 -241.24)" style="fill:#03f"/><path d="M553.89,522c-4.24,0-7.2-3.46-7.2-7.75v-.09c0-4.19,2.92-7.66,6.93-7.66a8.07,8.07,0,0,1,6.24,3l3.42-3.69a12,12,0,0,0-9.62-4.15,12.41,12.41,0,0,0-12.49,12.58v.09a12.62,12.62,0,0,0,22.29,7.93L560.13,519A8.45,8.45,0,0,1,553.89,522Z" transform="translate(-116.16 -241.24)" style="fill:#03f"/><rect x="366.67" y="251.7" width="5.51" height="33.27" style="fill:#03f"/><path d="M502.2,495.53h-5.51v6.61h-3v4.74h3v12.67c0,5.29,2.87,7.06,6.93,7.06a9.72,9.72,0,0,0,5-1.23v-4.51a7.4,7.4,0,0,1-3.42.82c-1.87,0-3-.87-3-3V506.87h6.47v-4.74h-6.47v-6.6Z" transform="translate(-116.16 -241.24)" style="fill:#03f"/><path d="M527.27,501.65a8.66,8.66,0,0,0-7.52,4.24V492.94h-5.51v33.27h5.51V512.63c0-3.74,2.23-6,5.43-6s5.15,2.14,5.15,5.88v13.67h5.51V510.9C535.84,505.28,532.69,501.65,527.27,501.65Z" transform="translate(-116.16 -241.24)" style="fill:#03f"/><path d="M233.1,285.58A36.35,36.35,0,0,1,246,257.83a36.38,36.38,0,0,1-.11,55.55,36.34,36.34,0,0,1-12.83-27.8m39.17-28.46a27.57,27.57,0,0,0,.93,23.22,27.6,27.6,0,0,0,16.2-38.92,27.59,27.59,0,0,0-17.13,15.7m-70.64,7.33a27.57,27.57,0,0,0,17.07,15.76,27.6,27.6,0,0,0-16-39,27.56,27.56,0,0,0-1,23.22m-44.77,55.13a27.57,27.57,0,0,0,23.22-.93,27.61,27.61,0,0,0-38.92-16.21,27.6,27.6,0,0,0,15.7,17.14m170.55-17.69A27.57,27.57,0,0,0,311.65,319a27.6,27.6,0,0,0,39-16,27.56,27.56,0,0,0-23.22-1m-21.14,31.47a36.32,36.32,0,0,0-27.8,12.84,36.37,36.37,0,0,0,55.55.1,36.3,36.3,0,0,0-27.75-12.94m-26.69-39A36.31,36.31,0,0,0,269,323.05a36.37,36.37,0,0,0,39.36-39.2,36.33,36.33,0,0,0-28.78,10.47m-94,39a36.32,36.32,0,0,0-27.75,12.94,36.37,36.37,0,0,0,55.55-.1,36.32,36.32,0,0,0-27.8-12.84m26.69-39a36.35,36.35,0,0,0-28.78-10.47,36.37,36.37,0,0,0,39.36,39.2,36.3,36.3,0,0,0-10.58-28.73" transform="translate(-116.16 -241.24)" style="fill:#03cc54"/></svg>