<svg class="logo-module--logo--69176" height="25" viewBox="0 0 217 25" width="217" xmlns="http://www.w3.org/2000/svg"><g fill="none"><path d="M17.261044,0 C12.9994051,0 9.54398148,3.50643137 9.54398148,7.83160784 L9.54398148,9.86368627 L24.9781065,9.86368627 L24.9781065,7.83160784 C24.9781065,3.50643137 21.5231852,0 17.261044,0" fill="#FF4F00"></path><path d="M0,17.0276863 C0,21.3533725 3.4549213,24.8598039 7.7170625,24.8598039 L9.71928935,24.8598039 L9.71928935,9.1960784 L7.7170625,9.1960784 C3.4549213,9.1960784 0,12.7025098 0,17.0276863" fill="#00A6E4"></path><polygon fill="#530077" points="9.544 24.86 24.978 24.86 24.978 9.196 9.544 9.196"></polygon><path d="M80.4475289,9.1960784 C79.7111353,9.1960784 79.0847488,9.1960784 78.563346,9.1960784 C78.0424455,9.1960784 77.676258,9.4147843 77.4391654,9.9582353 C77.1985566,10.5083137 73.9993136,19.1347059 73.9993136,19.1347059 C73.9993136,19.1347059 70.8025821,10.1667451 70.6865474,9.8521961 C70.5705127,9.5376471 70.2620914,9.1981176 69.7356654,9.1981176 C69.2092395,9.1981176 68.5331238,9.1981176 67.7439872,9.1981176 C66.9553529,9.1981176 66.6514525,9.9164314 66.8840242,10.5847843 C67.008096,10.9406275 72.2723552,23.5572549 72.2723552,23.5572549 C72.4320914,23.9416471 72.8022974,24.1899216 73.2146978,24.1899216 L74.6568437,24.1899216 C75.0687418,24.1899216 75.4429664,23.9421569 75.6097349,23.5582745 C75.6097349,23.5582745 80.8398367,11.4320784 81.2512326,10.549098 C81.5596539,9.8873725 81.1844247,9.1960784 80.4475289,9.1960784 Z M106.918288,23.2162798 C106.875591,22.6845543 106.842941,22.4663582 106.779147,22.0631033 C106.658089,21.3029857 106.141207,21.1107896 105.669534,21.26577 C105.364126,21.3651818 104.896471,21.6425151 104.287163,21.6425151 C103.941571,21.6425151 103.532184,21.5629857 103.27751,21.1984759 C102.968084,20.7554563 103.0148,19.9596523 103.019321,19.4335347 L103.076082,12.8152602 C103.076082,12.8152602 105.267682,12.8152602 105.939779,12.8152602 C106.611876,12.8152602 106.886642,12.3176916 106.890661,11.8298092 C106.894679,11.3419269 106.88614,11.1155739 106.890661,10.5690641 C106.895182,10.0230641 106.63649,9.5810641 105.939779,9.5810641 C105.243068,9.5810641 103.103709,9.5810641 103.103709,9.5810641 C103.103709,9.5810641 103.12983,6.55486803 103.133848,6.08635823 C103.137867,5.61784842 102.89324,4.93573078 101.911716,5.16259352 C101.380267,5.28545627 100.860372,5.4062798 100.350522,5.57298568 C99.8406724,5.73969156 99.4127002,6.07514254 99.4081794,6.58035823 C99.4041609,7.08659352 99.383566,9.5810641 99.383566,9.5810641 C99.383566,9.5810641 98.8506099,9.5810641 97.9394109,9.5810641 C97.0282118,9.5810641 96.9578877,10.1724367 96.9543715,10.582319 C96.9508553,10.9927112 96.9523623,11.120672 96.9468368,11.7711818 C96.9413113,12.4216916 97.2306447,12.8162798 97.9700521,12.8162798 C98.7094595,12.8162798 99.354934,12.8162798 99.354934,12.8162798 L99.2981724,19.4090641 C99.2851123,20.9649857 99.2720521,22.4347504 100.245538,23.551221 C100.998508,24.4148288 102.34873,24.8527504 103.914948,24.8527504 C105.452031,24.8527504 106.071888,24.4698876 106.405927,24.2552602 C106.74298,24.0391033 106.954957,23.6725543 106.918288,23.2162798 Z M56.8839807,13.6436078 C57.4018673,13.0512157 58.3894182,12.418549 59.596983,12.418549 L59.5979876,12.418549 C60.6362724,12.418549 61.4505247,12.7626667 62.1010224,13.4554902 C62.8821219,14.2869804 62.9886126,15.4513725 62.9886126,15.4513725 L55.990865,15.4488235 C55.990865,15.4488235 55.9968927,14.6581176 56.8839807,13.6436078 Z M64.777858,11.3719216 C63.3427446,9.8302745 61.6383904,9.197098 59.6929251,9.1960784 C57.5907376,9.1960784 55.7703488,9.8904314 54.3271983,11.4356471 C53.0161566,12.8391373 52.2596705,14.8543922 52.2410849,16.9858824 C52.2219969,19.2325882 52.997571,21.2580392 54.4246474,22.6880392 C55.8035015,24.0696078 57.7238511,24.8592941 59.9606589,24.8592941 C63.3919714,24.8592941 65.3972122,23.128 65.6041659,22.92 C65.9261497,22.5962745 66.1577168,22.1338824 65.9572932,21.625098 C65.8020779,21.2320392 65.5855802,20.8221569 65.3615478,20.4321569 C65.111395,19.9978039 64.562365,19.6536863 63.7481126,20.2496471 C63.4160825,20.4928235 62.1095617,21.648549 60.0314853,21.648549 L60.030983,21.648549 C58.7174298,21.648549 57.7188279,21.2733333 56.9794205,20.5009804 C56.3902052,19.8866667 56.0139714,19.144902 55.853733,18.2879216 L65.5479066,18.2812941 C66.0441937,18.2807843 66.4731705,17.9223922 66.5691126,17.4273725 C66.5962376,17.2881961 67.1362261,13.9056471 64.777858,11.3719216 Z M93.2781824,17.041451 C93.2565828,19.5716078 91.6145157,21.6179608 89.2044092,21.6179608 C86.7696893,21.6179608 85.1617796,19.6006667 85.1838814,17.041451 C85.205481,14.5112941 86.8199208,12.4649412 89.2832726,12.4649412 C91.7496384,12.4649412 93.3002842,14.5112941 93.2781824,17.041451 Z M97.0877379,17.041451 C97.1249092,12.6632549 93.8779462,9.1960784 89.3114023,9.1960784 C84.7192402,9.1960784 81.4125018,12.7213725 81.3753305,17.041451 C81.3366523,21.5323137 84.6971384,24.8587843 89.1767819,24.8587843 C93.6594393,24.8587843 97.0490597,21.4757255 97.0877379,17.041451 Z M135.556021,17.0634362 C135.534421,19.5935931 133.921489,21.639946 131.399868,21.639946 C129.104289,21.639946 127.355229,19.7633578 127.378336,17.0634362 C127.399935,14.5332794 129.042505,12.4588872 131.479234,12.4588872 C133.94359,12.4588872 135.57762,14.5332794 135.556021,17.0634362 Z M139.254063,23.5450833 C139.259086,22.9690049 139.247533,4.82967152 139.254063,4.03947544 C139.261095,3.24876956 138.641239,3.00253426 138.237377,3.0978676 C137.956583,3.16414211 136.606864,3.49245583 136.241681,3.60716171 C135.77503,3.75347544 135.526887,4.2031225 135.522366,4.70782838 C135.519854,4.96222054 135.465102,11.3775931 135.465102,11.3775931 C134.328364,10.1285735 133.048465,9.2180637 130.947785,9.2180637 C126.464123,9.2180637 123.606454,12.8570441 123.569785,17.0634362 C123.53412,21.2417892 126.303382,24.8807696 130.812662,24.8807696 C132.827949,24.8807696 134.209817,23.9712794 135.424917,22.7212401 C135.424917,22.7212401 135.421903,23.0536323 135.41688,23.6567303 C135.411857,24.260848 135.699181,24.624848 136.321046,24.624848 C136.94241,24.624848 137.638618,24.624848 138.212262,24.624848 C139.00391,24.624848 139.248537,24.206299 139.254063,23.5450833 Z M112.138126,13.6436078 C112.656013,13.0507059 113.643564,12.418549 114.851128,12.418549 L114.852133,12.418549 C115.89092,12.418549 116.70467,12.7621569 117.35567,13.4549804 C118.136267,14.2864706 118.242758,15.4513725 118.242758,15.4513725 L111.24501,15.4488235 C111.24501,15.4488235 111.25154,14.6581176 112.138126,13.6436078 Z M120.032003,11.3719216 C118.59689,9.8302745 116.892536,9.1965882 114.947573,9.1960784 C112.844883,9.1960784 111.024494,9.8904314 109.581344,11.4356471 C108.270302,12.8386275 107.514318,14.8543922 107.495733,16.9853725 C107.476142,19.2320784 108.251716,21.2575294 109.678793,22.6880392 C111.057647,24.0696078 112.977997,24.8592941 115.214804,24.8592941 C118.646117,24.8592941 120.651358,23.1274902 120.858814,22.92 C121.180295,22.5957647 121.411862,22.1338824 121.211439,21.625098 C121.056223,21.2315294 120.839726,20.8221569 120.615693,20.4321569 C120.36554,19.9972941 119.81651,19.6536863 119.002258,20.2496471 C118.670228,20.4923137 117.363707,21.648549 115.286133,21.648549 C115.286133,21.648549 115.285631,21.648549 115.285128,21.648549 C113.972078,21.648549 112.972973,21.2728235 112.233566,20.5009804 C111.644853,19.8866667 111.268117,19.144902 111.107878,18.2879216 L120.802052,18.2807843 C121.298339,18.2802745 121.727316,17.9218824 121.823258,17.4268627 C121.850383,17.2881961 122.390372,13.9051373 120.032003,11.3719216 Z M44.0585782,19.8876863 C42.4270596,21.1168235 39.7251082,21.1193725 38.5637564,21.1193725 L36.3611059,21.1193725 L36.3611059,6.85403922 L38.5627518,6.85352941 C40.2485203,6.85352941 41.9990874,6.96058824 43.3764346,7.73701961 C46.233099,9.3474902 46.6354532,12.3492157 46.6213883,13.9958824 C46.5977795,16.7161961 45.7840295,18.5881961 44.0585782,19.8876863 Z M45.1395596,4.38403922 C43.4221453,3.446 41.4711545,3.08047059 38.1734578,3.08047059 L36.6735457,3.07843137 L33.8183883,3.07843137 C33.1673883,3.07843137 32.6449809,3.62901961 32.6505064,4.30807843 L32.6505064,23.6612549 C32.6449809,24.3398039 33.1673883,24.8903922 33.8183883,24.8903922 L38.4688189,24.8903922 C39.9340712,24.8903922 43.3663883,24.8903922 46.0547772,23.024 C48.8124856,21.1086667 50.3500712,17.902 50.3837263,13.9958824 C50.3972888,12.4200784 50.0587286,7.07121569 45.1395596,4.38403922 Z M192.116469,3.0820188 C192.021532,3.09986194 191.20527,3.26758743 191.082203,3.29409723 C190.92749,3.32672468 190.880775,3.45315605 190.87977,3.53421488 C190.879268,3.6025286 190.880273,23.9503325 190.880273,23.9503325 C190.879268,24.0905286 190.967675,24.1639404 191.078687,24.1639404 C191.140472,24.1639404 192.084321,24.1639404 192.146106,24.1639404 C192.251592,24.1639404 192.335981,24.0803325 192.337488,23.9528815 C192.337488,23.9528815 192.335479,3.3160188 192.335479,3.25688154 C192.336483,3.15390115 192.244057,3.05856782 192.116469,3.0820188 Z M177.317805,20.2532157 C177.29922,22.4158039 179.200984,23.5144314 181.117315,23.5144314 C184.504424,23.5144314 186.035479,20.5585882 186.035479,20.5585882 L186.067125,16.8961569 C186.067125,16.8961569 183.62487,16.578549 181.302167,16.8456863 C178.302845,17.1903137 177.330866,18.7870196 177.317805,20.2532157 Z M177.065141,10.9299216 C177.465988,10.7035686 179.425518,9.7058824 181.777859,9.7058824 C186.43934,9.7058824 187.555484,12.9105098 187.536898,15.1026667 C187.536898,15.1026667 187.502238,19.2259608 187.493197,20.2618824 C187.48516,21.1672941 187.527856,23.6102745 187.539912,24.2307059 C187.541419,24.3199216 187.489178,24.4453333 187.335972,24.4453333 C187.254095,24.4453333 186.632229,24.4453333 186.496604,24.4453333 C186.340384,24.4453333 186.320292,24.3102353 186.313761,24.2567059 C186.308236,24.2031765 186.152016,22.2679608 186.152016,22.2679608 C186.152016,22.2679608 184.541595,24.7563137 180.871683,24.7563137 C177.97634,24.7563137 175.787755,22.7920392 175.810359,20.1767451 C175.832461,17.6353725 177.605632,16.0192941 181.079139,15.5956471 C183.318458,15.3223922 186.079683,15.6476471 186.079683,15.6476471 L186.084706,15.018549 C186.102287,12.9716863 184.778185,10.9671373 181.595518,10.9671373 C179.529498,10.9671373 177.88944,11.9862353 177.431329,12.2707059 C177.316299,12.3420784 177.206292,12.2895686 177.182683,12.2018824 C177.16259,12.127451 176.967692,11.3382745 176.93906,11.2082745 C176.910428,11.0777647 176.981757,10.9773333 177.065141,10.9299216 Z M166.937151,10.9584706 C168.434049,10.9584706 169.57782,11.5299608 170.420202,12.473098 C171.848283,14.0713333 171.74581,16.0962745 171.739783,16.3756471 L161.751755,16.3720784 C161.808516,15.7587843 161.987341,14.1824706 163.200933,12.7269804 C163.916732,11.8689804 165.245354,10.9579608 166.937151,10.9584706 Z M171.557442,11.7583529 C170.342343,10.393098 168.807771,9.7063922 167.020535,9.7058824 C165.069042,9.7058824 163.51488,10.4124706 162.173197,11.9056863 C160.965632,13.2500392 160.256866,15.1888235 160.238783,17.2958431 C160.219695,19.5323529 160.967641,21.4655294 162.251558,22.7996863 C163.534972,24.1328235 165.226769,24.7812941 167.321422,24.7812941 C170.232336,24.7812941 172.246116,23.1376863 172.664042,22.7492157 C172.716785,22.7002745 172.761993,22.6059608 172.715278,22.4953333 C172.674088,22.4010196 172.327491,21.6347843 172.289817,21.5552549 C172.251641,21.4757255 172.136611,21.4385098 172.035144,21.5363922 C171.612697,21.9457647 169.870167,23.541451 167.379188,23.541451 C165.660769,23.541451 164.30904,22.9878039 163.319479,21.9177255 C161.940625,20.4250196 161.700016,18.676902 161.708556,17.6246667 C161.708556,17.6246667 172.713269,17.616 172.919218,17.616 C173.124665,17.616 173.219602,17.4997647 173.233165,17.3896471 C173.318558,16.6794902 173.499391,13.9418431 171.557442,11.7583529 Z" fill="#202322"></path><path d="M8.0867662,20.2285098 C7.84866898,20.3661569 7.3202338,20.6552157 6.41003935,20.6552157 C5.6826875,20.6552157 5.08443056,20.3982745 4.72477315,19.9307843 C4.24003935,19.3027059 4.2485787,18.3519216 4.26163889,16.9117255 L4.26163889,8.51933333 C4.26163889,8.51933333 8.18270833,8.51933333 8.23494907,8.51933333 C8.31783102,8.51933333 8.40322454,8.44694118 8.40372685,8.34039216 C8.40473148,8.23333333 8.41126157,7.48035294 8.41176389,7.42223529 C8.4122662,7.34576471 8.35701157,7.2534902 8.23896759,7.2534902 C8.12142593,7.2534902 4.26163889,7.2534902 4.26163889,7.2534902 C4.26163889,7.2534902 4.26113657,2.74937255 4.26163889,2.69329412 C4.2621412,2.61172549 4.19985417,2.50160784 4.05920602,2.52760784 C3.94266898,2.54901961 3.05106019,2.73 2.99530324,2.74580392 C2.87826389,2.77894118 2.80241435,2.85694118 2.80140972,2.98745098 C2.80090741,3.06086275 2.80140972,7.2534902 2.80140972,7.2534902 C2.80140972,7.2534902 0.483729167,7.2534902 0.375731481,7.2534902 C0.267231481,7.2534902 0.18887037,7.33505882 0.187865741,7.42835294 C0.187363426,7.488 0.182340278,8.25117647 0.181335648,8.35721569 C0.180331019,8.4627451 0.261706019,8.52035294 0.340569444,8.52035294 L2.80140972,8.52035294 L2.80291667,17.0101176 C2.78935417,18.639451 2.77780093,19.9272157 3.54282639,20.8361961 C4.14108333,21.5478824 5.05479398,21.8940392 6.33519444,21.8940392 C7.4086412,21.8940392 8.08626389,21.6151765 8.34545833,21.4780392 C8.45044213,21.4229804 8.49313889,21.317451 8.47706481,21.2012157 C8.46450694,21.109451 8.35902083,20.4553725 8.3374213,20.3330196 C8.31582176,20.2111765 8.20732176,20.1586667 8.0867662,20.2285098 M12.1530046,12.1338431 C12.1530046,12.1338431 12.1550139,21.2848235 12.1545116,21.3816863 C12.1535069,21.4877255 12.0972477,21.5886667 11.9435394,21.5886667 C11.8049005,21.5886667 11.0147593,21.5881569 10.8761204,21.5881569 C10.7379838,21.5881569 10.6983009,21.4688627 10.6988032,21.3827059 C10.6998079,21.296549 10.696794,1.02062745 10.6972963,0.956901961 C10.6977986,0.878392157 10.786206,0.749921569 10.9213287,0.706588235 C11.0564514,0.663764706 11.8285093,0.422117647 11.9420324,0.389490196 C12.0560579,0.356862745 12.1540093,0.437921569 12.1530046,0.544980392 C12.1525023,0.611764706 12.1530046,9.71329412 12.1530046,9.71329412 C12.1530046,9.71329412 13.624787,6.85176471 17.3338796,6.85176471 C19.0517963,6.85176471 20.5898843,7.45945098 21.5226829,8.62486275 C22.5026991,9.84992157 22.6197384,11.3686275 22.6026597,13.3645098 C22.6026597,13.3645098 22.6041667,21.288902 22.6036644,21.3765882 C22.6026597,21.4642745 22.5464005,21.5886667 22.4012315,21.5886667 C22.2555602,21.5886667 21.4885255,21.5886667 21.3413472,21.5886667 C21.2142616,21.5886667 21.1424306,21.4836471 21.1434352,21.3786275 C21.1439375,21.3021569 21.1444398,13.3920392 21.1444398,13.3920392 C21.1620208,11.3130588 20.9646111,10.3276078 20.2312315,9.40333333 C19.7113356,8.74670588 18.6564745,8.10180392 17.2861597,8.10180392 C13.256088,8.10180392 12.1530046,12.1338431 12.1530046,12.1338431" fill="#202322" transform="translate(194.396 2.569)"></path><path d="M157.953398,3.25602182 C157.9539,3.15304143 157.861474,3.0582179 157.733886,3.08217868 C157.639451,3.10002182 156.818669,3.36104143 156.695602,3.38755123 C156.540889,3.42119829 156.49769,3.54762966 156.497187,3.62919829 C156.497187,3.69751202 156.49568,12.4630806 156.49568,12.4630806 L144.116132,12.4630806 C144.116132,12.4630806 144.115629,3.34574731 144.116132,3.31770809 C144.116634,3.2147277 144.023706,3.11939437 143.896118,3.14335515 C143.801683,3.16170809 142.9809,3.4222179 142.858335,3.4487277 C142.70312,3.48237476 142.659921,3.60931594 142.659921,3.69037476 C142.659419,3.75868849 142.65741,24.1064924 142.65741,24.1064924 C142.656907,24.2471983 142.745817,24.3206101 142.856829,24.3201003 C142.918613,24.3195904 143.862463,24.315512 143.924247,24.3150022 C144.030236,24.3144924 144.114625,24.2308846 144.115127,24.1029238 L144.116132,13.985865 L156.497187,13.985865 L156.495178,24.1064924 C156.494676,24.2471983 156.583585,24.3206101 156.694597,24.3201003 C156.756382,24.3195904 157.700231,24.315512 157.762016,24.3150022 C157.867502,24.3144924 157.952393,24.2308846 157.952896,24.1029238 C157.952896,24.1029238 157.953398,3.27080613 157.953398,3.25602182 Z" fill="#202322"></path></g></svg>